<svg xmlns="http://www.w3.org/2000/svg" width="383.2" height="74.5"><path fill="#F7A800" d="M72.637 34.352a4.1 4.1 0 0 1 0 5.793L42.011 70.771a4.092 4.092 0 0 1-5.796 0L5.59 40.145a4.1 4.1 0 0 1 0-5.793L36.215 3.727a4.103 4.103 0 0 1 5.796 0l30.626 30.625z"/><path d="M35.009 2.521L4.384 33.146a5.813 5.813 0 0 0 0 8.21l30.625 30.628a5.81 5.81 0 0 0 8.208 0l30.625-30.628a5.766 5.766 0 0 0 1.701-4.103 5.77 5.77 0 0 0-1.701-4.108L43.217 2.521c-2.26-2.263-5.943-2.263-8.208 0zm2.415 67.044L6.799 38.939a2.392 2.392 0 0 1 0-3.381L37.424 4.932a2.399 2.399 0 0 1 3.379 0l30.629 30.625c.447.454.695 1.052.695 1.696 0 .634-.248 1.237-.695 1.686L40.803 69.565a2.39 2.39 0 0 1-3.379 0z"/><path d="M44.402 29.476c-.146 0-.291.015-.436.021.091-.479.142-.974.142-1.479a8.177 8.177 0 0 0-8.179-8.18 8.178 8.178 0 1 0 0 16.354c.507 0 1.002-.052 1.484-.139-.008.144-.023.289-.023.433a7.011 7.011 0 1 0 7.012-7.01zm-3.424 15.988a4.085 4.085 0 0 0-4.087 4.087 4.087 4.087 0 1 0 4.087-4.087z"/><g fill="#FFF"><path d="M93.54 58.194l8.654-41.887h22.171l-1.231 6.144h-14.349l-2.237 10.607h13.462l-1.284 6.144h-13.462l-3.906 18.993H93.54zM121.237 58.194l8.654-41.887h7.818l-8.653 41.887h-7.819zM136.039 51.938l18.823-25.972a86.8 86.8 0 0 0 1.396-1.865c.448-.619.969-1.222 1.567-1.82a14.55 14.55 0 0 1-1.51.145c-.484.015-.989.026-1.505.026h-11.736l1.227-6.144h22.905l-1.283 6.257-18.885 25.966c-.443.634-.892 1.257-1.34 1.871a15.01 15.01 0 0 1-1.562 1.814 15.742 15.742 0 0 1 1.505-.139c.484-.016.989-.026 1.51-.026h13.128l-1.227 6.144h-24.301l1.288-6.257zM163.969 51.938l18.819-25.972c.484-.628.948-1.257 1.396-1.865.443-.619.969-1.222 1.562-1.82-.521.078-1.026.124-1.51.145-.479.015-.984.026-1.505.026h-11.726l1.232-6.144h22.894l-1.288 6.257-18.869 25.966c-.448.634-.897 1.257-1.345 1.871a15.01 15.01 0 0 1-1.562 1.814 15.891 15.891 0 0 1 1.505-.139c.485-.016.99-.026 1.511-.026h13.122l-1.232 6.144h-24.292l1.288-6.257zM208.76 27.312c.186.855.335 1.716.448 2.592.108.876.165 1.778.165 2.711 0 .186-.011.371-.026.557-.021.186-.03.371-.03.562h.113c.635-1.645 1.306-3.072 2.011-4.304a106.82 106.82 0 0 1 2.181-3.628l5.695-9.494h8.546l-16.029 24.069-3.687 17.817h-7.819l3.686-17.817-5.922-24.069h8.545l2.123 11.004zM237.412 58.194l8.659-41.887h12.622c.819 0 1.639.025 2.453.082.819.057 1.593.186 2.319.392a6.675 6.675 0 0 1 1.984.923c.593.407 1.098.969 1.505 1.675.376.634.624 1.268.758 1.897.129.634.196 1.304.196 2.01 0 1.046-.15 2.252-.449 3.633a20.862 20.862 0 0 1-.752 2.675 10.814 10.814 0 0 1-1.258 2.489 9.953 9.953 0 0 1-1.959 2.093c-.777.634-1.746 1.134-2.901 1.51v.108c1.598.227 2.758.851 3.464 1.871.706 1.025 1.062 2.376 1.062 4.051 0 1.041-.149 2.309-.448 3.799a42.517 42.517 0 0 1-.639 2.572 17 17 0 0 1-.979 2.567c-1.418 2.644-3.046 4.561-4.886 5.752-1.846 1.195-4.16 1.788-6.959 1.788h-13.792zm10.726-6.143h1.727c.525 0 1.047-.031 1.567-.088a5.817 5.817 0 0 0 1.51-.36c1.149-.484 1.989-1.304 2.51-2.458.521-1.155.897-2.268 1.118-3.35.109-.593.207-1.134.279-1.619a9.18 9.18 0 0 0 .107-1.345c0-1.19-.34-2.062-1.03-2.623-.69-.557-1.948-.835-3.768-.835h-3.016l-2.685 12.679h1.681zm3.685-18.823h.727c.892 0 1.804-.067 2.736-.196.928-.129 1.748-.551 2.453-1.258a4.996 4.996 0 0 0 1.094-1.896 28.82 28.82 0 0 0 .695-2.623c.149-.707.227-1.397.227-2.067 0-.892-.252-1.556-.758-1.984-.5-.423-1.406-.68-2.705-.752h-3.634l-2.288 10.777h1.453zM268.409 58.194l8.658-41.887h22.008l-1.231 6.144h-14.185l-2.236 10.55h13.07l-1.283 6.144h-13.07l-2.681 12.906h14.185l-1.227 6.144h-22.008zM293.262 58.194l18.657-41.887h10.556l.841 41.887h-8.381l.113-10.612h-9.164l-4.241 10.612h-8.381zm15.137-16.756h6.705l.335-11.896c0-.969.057-1.938.165-2.902.113-.969.206-1.938.278-2.907.077-.484.134-.954.17-1.422.036-.469.072-.923.114-1.371h-.114c-.149.448-.299.902-.448 1.371a19.23 19.23 0 0 0-.392 1.422c-.299.969-.603 1.938-.923 2.907-.314.964-.68 1.933-1.087 2.902l-4.803 11.896zM330.351 16.308h26.084l-1.231 6.144h-9.102l-7.427 35.743h-7.819l7.427-35.743h-9.158l1.226-6.144zM374.475 29.038c.149-.67.278-1.33.392-1.979s.165-1.278.165-1.871c0-1.041-.253-1.901-.753-2.571-.505-.665-1.443-1.005-2.819-1.005-1.304 0-2.412.299-3.324.897-.912.598-1.515 1.598-1.814 3.015a5.22 5.22 0 0 0-.17 1.283c0 1.155.346 2.057 1.031 2.706.69.654 1.484 1.314 2.376 1.984.557.413 1.211.892 1.958 1.454a57.281 57.281 0 0 1 2.258 1.784 42.918 42.918 0 0 1 2.154 1.901 23.77 23.77 0 0 1 1.675 1.732c.742.892 1.273 1.793 1.588 2.706.319.912.479 1.892.479 2.933 0 .933-.113 1.974-.335 3.128-.412 1.974-1.093 3.716-2.041 5.221-.949 1.51-2.093 2.768-3.433 3.768-1.341 1.01-2.86 1.772-4.552 2.293-1.695.521-3.494.783-5.391.783-1.902 0-3.521-.206-4.86-.613-1.34-.412-2.428-1-3.268-1.763a6.772 6.772 0 0 1-1.84-2.762c-.392-1.078-.588-2.289-.588-3.634 0-1.149.145-2.474.443-3.963l.675-3.072h7.814l-.557 2.458c-.3 1.19-.449 2.216-.449 3.072 0 1.19.299 2.149.896 2.876.594.727 1.604 1.087 3.016 1.087 3.242 0 5.216-1.634 5.922-4.912.113-.485.165-.954.165-1.397 0-.861-.186-1.624-.557-2.288-.371-.675-.912-1.289-1.618-1.846a38.584 38.584 0 0 0-2.736-2.262c-.97-.727-1.918-1.458-2.851-2.206s-1.81-1.536-2.624-2.376a13.692 13.692 0 0 1-2.123-2.819c-.598-1.227-.892-2.624-.892-4.19a10.722 10.722 0 0 1 .222-2.231c.742-3.608 2.319-6.355 4.716-8.236 2.401-1.881 5.69-2.819 9.86-2.819 2.046 0 3.726.242 5.029.727 1.305.484 2.325 1.113 3.067 1.896.747.783 1.252 1.675 1.51 2.68a12.09 12.09 0 0 1 .392 3.015c0 1.046-.072 2.03-.222 2.963a51.81 51.81 0 0 1-.448 2.454h-7.538z"/></g></svg>