<?xml version="1.0" encoding="utf-8"?>
<!-- Generator: Adobe Illustrator 16.0.0, SVG Export Plug-In . SVG Version: 6.00 Build 0)  -->
<!DOCTYPE svg PUBLIC "-//W3C//DTD SVG 1.1//EN" "http://www.w3.org/Graphics/SVG/1.1/DTD/svg11.dtd">
<svg version="1.1" id="Layer_1" xmlns="http://www.w3.org/2000/svg" xmlns:xlink="http://www.w3.org/1999/xlink" x="0px" y="0px"
	 width="383.2px" height="74.5px" viewBox="0 0 383.2 74.5" enable-background="new 0 0 383.2 74.5" xml:space="preserve">
<g>
	<path fill="#F7A800" d="M72.637,34.352c1.598,1.603,1.598,4.195,0,5.793L42.011,70.771c-1.6,1.604-4.193,1.604-5.796,0L5.59,40.145
		c-1.598-1.598-1.598-4.19,0-5.793L36.215,3.727c1.603-1.598,4.196-1.598,5.796,0L72.637,34.352z"/>
	<path d="M35.009,2.521L4.384,33.146c-2.263,2.263-2.263,5.943,0,8.21l30.625,30.628c2.265,2.263,5.945,2.263,8.208,0l30.625-30.628
		c1.098-1.098,1.701-2.556,1.701-4.103c0-1.551-0.603-3.01-1.701-4.108l0,0L43.217,2.521C40.957,0.258,37.274,0.258,35.009,2.521z
		 M37.424,69.565L6.799,38.939c-0.933-0.933-0.933-2.448,0-3.381L37.424,4.932c0.933-0.928,2.448-0.928,3.379,0l30.629,30.625
		c0.447,0.454,0.695,1.052,0.695,1.696c0,0.634-0.248,1.237-0.695,1.686L40.803,69.565C39.872,70.498,38.357,70.498,37.424,69.565z"
		/>
	<path d="M44.402,29.476c-0.146,0-0.291,0.015-0.436,0.021c0.091-0.479,0.142-0.974,0.142-1.479c0-4.521-3.662-8.18-8.179-8.18
		c-4.518,0-8.18,3.659-8.18,8.18c0,4.515,3.662,8.174,8.18,8.174c0.507,0,1.002-0.052,1.484-0.139
		c-0.008,0.144-0.023,0.289-0.023,0.433c0,3.871,3.139,7.01,7.012,7.01c3.871,0,7.01-3.139,7.01-7.01
		C51.412,32.615,48.273,29.476,44.402,29.476z M40.978,45.464c-2.26,0-4.087,1.83-4.087,4.087c0,2.258,1.827,4.087,4.087,4.087
		c2.258,0,4.087-1.83,4.087-4.087C45.065,47.293,43.235,45.464,40.978,45.464z"/>
</g>
<g>
	<path d="M93.54,58.194l8.654-41.887h22.171l-1.231,6.144h-14.349l-2.237,10.607h13.462l-1.284,6.144h-13.462l-3.906,18.993H93.54z"
		/>
	<path d="M121.237,58.194l8.654-41.887h7.818l-8.653,41.887H121.237z"/>
	<path d="M136.039,51.938l18.823-25.972c0.484-0.628,0.953-1.257,1.396-1.865c0.448-0.619,0.969-1.222,1.567-1.82
		c-0.526,0.078-1.026,0.124-1.51,0.145c-0.484,0.015-0.989,0.026-1.505,0.026h-11.736l1.227-6.144h22.905l-1.283,6.257
		l-18.885,25.966c-0.443,0.634-0.892,1.257-1.34,1.871c-0.443,0.613-0.969,1.222-1.562,1.814c0.521-0.072,1.021-0.119,1.505-0.139
		c0.484-0.016,0.989-0.026,1.51-0.026h13.128l-1.227,6.144h-24.301L136.039,51.938z"/>
	<path d="M163.969,51.938l18.819-25.972c0.484-0.628,0.948-1.257,1.396-1.865c0.443-0.619,0.969-1.222,1.562-1.82
		c-0.521,0.078-1.026,0.124-1.51,0.145c-0.479,0.015-0.984,0.026-1.505,0.026h-11.726l1.232-6.144h22.894l-1.288,6.257
		l-18.869,25.966c-0.448,0.634-0.897,1.257-1.345,1.871c-0.443,0.613-0.969,1.222-1.562,1.814c0.521-0.072,1.026-0.119,1.505-0.139
		c0.485-0.016,0.99-0.026,1.511-0.026h13.122l-1.232,6.144h-24.292L163.969,51.938z"/>
	<path d="M208.76,27.312c0.186,0.855,0.335,1.716,0.448,2.592c0.108,0.876,0.165,1.778,0.165,2.711c0,0.186-0.011,0.371-0.026,0.557
		c-0.021,0.186-0.03,0.371-0.03,0.562h0.113c0.635-1.645,1.306-3.072,2.011-4.304c0.707-1.232,1.434-2.438,2.181-3.628l5.695-9.494
		h8.546l-16.029,24.069l-3.687,17.817h-7.819l3.686-17.817l-5.922-24.069h8.545L208.76,27.312z"/>
	<path d="M237.412,58.194l8.659-41.887h12.622c0.819,0,1.639,0.025,2.453,0.082c0.819,0.057,1.593,0.186,2.319,0.392
		c0.727,0.207,1.387,0.511,1.984,0.923c0.593,0.407,1.098,0.969,1.505,1.675c0.376,0.634,0.624,1.268,0.758,1.897
		c0.129,0.634,0.196,1.304,0.196,2.01c0,1.046-0.15,2.252-0.449,3.633c-0.186,0.892-0.438,1.784-0.752,2.675
		c-0.319,0.896-0.737,1.727-1.258,2.489c-0.525,0.763-1.175,1.458-1.959,2.093c-0.777,0.634-1.746,1.134-2.901,1.51v0.108
		c1.598,0.227,2.758,0.851,3.464,1.871c0.706,1.025,1.062,2.376,1.062,4.051c0,1.041-0.149,2.309-0.448,3.799
		c-0.186,0.855-0.396,1.716-0.639,2.572c-0.248,0.855-0.572,1.711-0.979,2.567c-1.418,2.644-3.046,4.561-4.886,5.752
		c-1.846,1.195-4.16,1.788-6.959,1.788H237.412z M248.138,52.051h1.727c0.525,0,1.047-0.031,1.567-0.088
		c0.521-0.051,1.025-0.175,1.51-0.36c1.149-0.484,1.989-1.304,2.51-2.458c0.521-1.155,0.897-2.268,1.118-3.35
		c0.109-0.593,0.207-1.134,0.279-1.619c0.072-0.484,0.107-0.933,0.107-1.345c0-1.19-0.34-2.062-1.03-2.623
		c-0.69-0.557-1.948-0.835-3.768-0.835h-3.016l-2.685,12.679H248.138z M251.823,33.228h0.727c0.892,0,1.804-0.067,2.736-0.196
		c0.928-0.129,1.748-0.551,2.453-1.258c0.485-0.521,0.852-1.149,1.094-1.896c0.242-0.747,0.474-1.624,0.695-2.623
		c0.149-0.707,0.227-1.397,0.227-2.067c0-0.892-0.252-1.556-0.758-1.984c-0.5-0.423-1.406-0.68-2.705-0.752h-3.634l-2.288,10.777
		H251.823z"/>
	<path d="M268.409,58.194l8.658-41.887h22.008l-1.231,6.144h-14.185l-2.236,10.55h13.07l-1.283,6.144h-13.07l-2.681,12.906h14.185
		l-1.227,6.144H268.409z"/>
	<path d="M293.262,58.194l18.657-41.887h10.556l0.841,41.887h-8.381l0.113-10.612h-9.164l-4.241,10.612H293.262z M308.399,41.438
		h6.705l0.335-11.896c0-0.969,0.057-1.938,0.165-2.902c0.113-0.969,0.206-1.938,0.278-2.907c0.077-0.484,0.134-0.954,0.17-1.422
		c0.036-0.469,0.072-0.923,0.114-1.371h-0.114c-0.149,0.448-0.299,0.902-0.448,1.371c-0.149,0.469-0.278,0.938-0.392,1.422
		c-0.299,0.969-0.603,1.938-0.923,2.907c-0.314,0.964-0.68,1.933-1.087,2.902L308.399,41.438z"/>
	<path d="M330.351,16.308h26.084l-1.231,6.144h-9.102l-7.427,35.743h-7.819l7.427-35.743h-9.158L330.351,16.308z"/>
	<path d="M374.475,29.038c0.149-0.67,0.278-1.33,0.392-1.979s0.165-1.278,0.165-1.871c0-1.041-0.253-1.901-0.753-2.571
		c-0.505-0.665-1.443-1.005-2.819-1.005c-1.304,0-2.412,0.299-3.324,0.897c-0.912,0.598-1.515,1.598-1.814,3.015
		c-0.113,0.443-0.17,0.876-0.17,1.283c0,1.155,0.346,2.057,1.031,2.706c0.69,0.654,1.484,1.314,2.376,1.984
		c0.557,0.413,1.211,0.892,1.958,1.454c0.742,0.557,1.495,1.149,2.258,1.784c0.768,0.634,1.484,1.268,2.154,1.901
		c0.67,0.634,1.227,1.211,1.675,1.732c0.742,0.892,1.273,1.793,1.588,2.706c0.319,0.912,0.479,1.892,0.479,2.933
		c0,0.933-0.113,1.974-0.335,3.128c-0.412,1.974-1.093,3.716-2.041,5.221c-0.949,1.51-2.093,2.768-3.433,3.768
		c-1.341,1.01-2.86,1.772-4.552,2.293c-1.695,0.521-3.494,0.783-5.391,0.783c-1.902,0-3.521-0.206-4.86-0.613
		c-1.34-0.412-2.428-1-3.268-1.763c-0.835-0.763-1.454-1.68-1.84-2.762c-0.392-1.078-0.588-2.289-0.588-3.634
		c0-1.149,0.145-2.474,0.443-3.963l0.675-3.072h7.814l-0.557,2.458c-0.3,1.19-0.449,2.216-0.449,3.072
		c0,1.19,0.299,2.149,0.896,2.876c0.594,0.727,1.604,1.087,3.016,1.087c3.242,0,5.216-1.634,5.922-4.912
		c0.113-0.485,0.165-0.954,0.165-1.397c0-0.861-0.186-1.624-0.557-2.288c-0.371-0.675-0.912-1.289-1.618-1.846
		c-0.861-0.783-1.773-1.536-2.736-2.262c-0.97-0.727-1.918-1.458-2.851-2.206s-1.81-1.536-2.624-2.376
		c-0.819-0.835-1.53-1.778-2.123-2.819c-0.598-1.227-0.892-2.624-0.892-4.19c0-0.371,0.016-0.742,0.052-1.113
		s0.093-0.742,0.17-1.118c0.742-3.608,2.319-6.355,4.716-8.236c2.401-1.881,5.69-2.819,9.86-2.819c2.046,0,3.726,0.242,5.029,0.727
		c1.305,0.484,2.325,1.113,3.067,1.896c0.747,0.783,1.252,1.675,1.51,2.68c0.258,1.005,0.392,2.01,0.392,3.015
		c0,1.046-0.072,2.03-0.222,2.963c-0.149,0.928-0.299,1.748-0.448,2.454H374.475z"/>
</g>
</svg>
